<svg width="70" height="70" viewBox="0 0 70 70" fill="none" xmlns="http://www.w3.org/2000/svg">
<path d="M35 5.83337C31.1698 5.83337 27.3771 6.58779 23.8384 8.05355C20.2998 9.51932 17.0845 11.6677 14.3761 14.3761C8.90628 19.8459 5.83337 27.2646 5.83337 35C5.83337 47.8917 14.2042 58.8292 25.7834 62.7084C27.2417 62.9417 27.7084 62.0375 27.7084 61.25V56.3209C19.6292 58.0709 17.9084 52.4125 17.9084 52.4125C16.5667 49.0292 14.6709 48.125 14.6709 48.125C12.0167 46.3167 14.875 46.375 14.875 46.375C17.7917 46.5792 19.3375 49.3792 19.3375 49.3792C21.875 53.8125 26.1625 52.5 27.825 51.8C28.0875 49.9042 28.8459 48.6209 29.6625 47.8917C23.1875 47.1625 16.3917 44.6542 16.3917 33.5417C16.3917 30.3042 17.5 27.7084 19.3959 25.6375C19.1042 24.9084 18.0834 21.875 19.6875 17.9375C19.6875 17.9375 22.1375 17.15 27.7084 20.9125C30.0125 20.2709 32.5209 19.95 35 19.95C37.4792 19.95 39.9875 20.2709 42.2917 20.9125C47.8625 17.15 50.3125 17.9375 50.3125 17.9375C51.9167 21.875 50.8959 24.9084 50.6042 25.6375C52.5 27.7084 53.6084 30.3042 53.6084 33.5417C53.6084 44.6834 46.7834 47.1334 40.2792 47.8625C41.3292 48.7667 42.2917 50.5459 42.2917 53.2584V61.25C42.2917 62.0375 42.7584 62.9709 44.2459 62.7084C55.825 58.8 64.1667 47.8917 64.1667 35C64.1667 31.1698 63.4123 27.3771 61.9465 23.8384C60.4808 20.2998 58.3324 17.0845 55.624 14.3761C52.9156 11.6677 49.7003 9.51932 46.1616 8.05355C42.623 6.58779 38.8303 5.83337 35 5.83337Z" fill="#DFDFDF"/>
</svg>
