<svg width="70" height="70" viewBox="0 0 70 70" fill="none" xmlns="http://www.w3.org/2000/svg">
<path d="M22.75 5.83337H47.2501C56.5834 5.83337 64.1667 13.4167 64.1667 22.75V47.2501C64.1667 51.7366 62.3844 56.0395 59.2119 59.2119C56.0395 62.3844 51.7366 64.1667 47.2501 64.1667H22.75C13.4167 64.1667 5.83337 56.5834 5.83337 47.2501V22.75C5.83337 18.2635 7.61566 13.9606 10.7882 10.7882C13.9606 7.61566 18.2635 5.83337 22.75 5.83337ZM22.1667 11.6667C19.3819 11.6667 16.7112 12.773 14.7421 14.7421C12.773 16.7112 11.6667 19.3819 11.6667 22.1667V47.8334C11.6667 53.6375 16.3625 58.3334 22.1667 58.3334H47.8334C50.6182 58.3334 53.2889 57.2271 55.258 55.258C57.2271 53.2889 58.3334 50.6182 58.3334 47.8334V22.1667C58.3334 16.3625 53.6375 11.6667 47.8334 11.6667H22.1667ZM50.3125 16.0417C51.2795 16.0417 52.2068 16.4258 52.8905 17.1095C53.5743 17.7933 53.9584 18.7206 53.9584 19.6875C53.9584 20.6545 53.5743 21.5818 52.8905 22.2655C52.2068 22.9493 51.2795 23.3334 50.3125 23.3334C49.3456 23.3334 48.4183 22.9493 47.7346 22.2655C47.0508 21.5818 46.6667 20.6545 46.6667 19.6875C46.6667 18.7206 47.0508 17.7933 47.7346 17.1095C48.4183 16.4258 49.3456 16.0417 50.3125 16.0417ZM35 20.4167C38.8678 20.4167 42.5771 21.9532 45.312 24.6881C48.0469 27.423 49.5834 31.1323 49.5834 35C49.5834 38.8678 48.0469 42.5771 45.312 45.312C42.5771 48.0469 38.8678 49.5834 35 49.5834C31.1323 49.5834 27.423 48.0469 24.6881 45.312C21.9532 42.5771 20.4167 38.8678 20.4167 35C20.4167 31.1323 21.9532 27.423 24.6881 24.6881C27.423 21.9532 31.1323 20.4167 35 20.4167ZM35 26.25C32.6794 26.25 30.4538 27.1719 28.8129 28.8129C27.1719 30.4538 26.25 32.6794 26.25 35C26.25 37.3207 27.1719 39.5463 28.8129 41.1872C30.4538 42.8282 32.6794 43.75 35 43.75C37.3207 43.75 39.5463 42.8282 41.1872 41.1872C42.8282 39.5463 43.75 37.3207 43.75 35C43.75 32.6794 42.8282 30.4538 41.1872 28.8129C39.5463 27.1719 37.3207 26.25 35 26.25Z" fill="#DFDFDF"/>
</svg>
